<svg width="40" height="22" viewBox="0 0 40 22" fill="none" xmlns="http://www.w3.org/2000/svg">
<path fill-rule="evenodd" clip-rule="evenodd" d="M38.1748 1.29026C37.3896 0.505134 36.1154 0.505134 35.3302 1.29026L19.7332 16.8888L4.13475 1.29182C3.34962 0.506729 2.07538 0.506744 1.29026 1.29186C0.505134 2.07699 0.505134 3.35126 1.29026 4.13639L18.3126 21.1587L18.3149 21.161C18.7053 21.5473 19.2191 21.7449 19.7333 21.7449C20.2457 21.7449 20.764 21.5483 21.1566 21.1531L21.1592 21.1505L38.1748 4.13487L38.175 4.13466C38.9598 3.34955 38.9599 2.07544 38.1748 1.29026ZM2.16556 2.16715C2.18913 2.14358 2.21385 2.12185 2.23955 2.10196C2.21386 2.12185 2.18914 2.14357 2.16557 2.16714C1.86385 2.46886 1.86385 2.95937 2.16557 3.26109L19.1856 20.2811C19.258 20.3528 19.341 20.4075 19.4295 20.4452C19.341 20.4075 19.258 20.3528 19.1856 20.2811L2.16556 3.2611C1.86384 2.95938 1.86384 2.46887 2.16556 2.16715Z" fill="white"/>
</svg>
