<svg width="20" height="20" viewBox="0 0 20 20" fill="none" xmlns="http://www.w3.org/2000/svg">
<path fill-rule="evenodd" clip-rule="evenodd" d="M2.19487 0.681678C2.63191 0.245177 3.22435 0 3.84204 0C4.45973 0 5.05217 0.245177 5.48922 0.681678L8.14744 3.34316C8.14753 3.34325 8.14763 3.34335 8.14772 3.34344C8.36411 3.55964 8.53578 3.81636 8.65293 4.09892C8.77013 4.38162 8.83045 4.68464 8.83045 4.99066C8.83045 5.29667 8.77013 5.59969 8.65293 5.88239C8.53586 6.16476 8.36435 6.42132 8.14817 6.63742C8.14815 6.63744 8.14813 6.63746 8.14811 6.63748C8.02089 6.76489 7.94943 6.93758 7.94943 7.11763C7.94943 7.29771 8.02091 7.47043 8.14817 7.59784L12.4029 11.8534C12.4658 11.9164 12.5405 11.9663 12.6227 12.0004C12.7049 12.0345 12.793 12.052 12.882 12.052C12.971 12.052 13.0591 12.0345 13.1413 12.0004C13.2235 11.9663 13.2982 11.9164 13.3611 11.8534L13.3618 11.8527C13.7989 11.4162 14.3913 11.171 15.009 11.171C15.6267 11.171 16.2191 11.4162 16.6562 11.8527L19.3159 14.5108C19.7524 14.9479 19.9976 15.5403 19.9976 16.158C19.9976 16.7757 19.7524 17.3681 19.3159 17.8052L18.6844 18.4367C17.8256 19.2955 16.6996 19.8358 15.4922 19.9682C14.2903 20.1 13.0794 19.8198 12.0578 19.1738C12.0433 19.1652 12.0291 19.1562 12.0152 19.1468C7.61507 16.173 3.82596 12.383 0.853101 7.98223C0.852159 7.98084 0.851222 7.97944 0.850289 7.97804L0.843765 7.96826C0.840486 7.96334 0.83726 7.95838 0.834087 7.9534C0.182297 6.92868 -0.100658 5.71237 0.0319149 4.50518C0.164488 3.29799 0.704667 2.17208 1.56331 1.31323L2.19487 0.681678ZM3.36191 1.85003C3.36189 1.85005 3.36186 1.85008 3.36183 1.85011L2.73114 2.4808C2.73112 2.48082 2.7311 2.48084 2.73108 2.48086C2.13806 3.07405 1.76499 3.85169 1.67342 4.68545C1.58216 5.51645 1.77598 6.3537 2.22295 7.05998C5.073 11.2784 8.70412 14.9122 12.9203 17.7654C12.9238 17.7675 12.9273 17.7697 12.9308 17.7719C13.6384 18.2224 14.4784 18.4181 15.3122 18.3266C16.146 18.2352 16.9236 17.8621 17.5167 17.269L18.1006 17.8528L17.5167 17.269L18.1475 16.6382C18.2748 16.5108 18.3462 16.3381 18.3462 16.158C18.3462 15.978 18.2748 15.8054 18.1476 15.678C18.1476 15.6779 18.1475 15.6779 18.1475 15.6778L15.4892 13.0211C15.3618 12.8939 15.1891 12.8224 15.009 12.8224C14.829 12.8224 14.6564 12.8938 14.529 13.0209C14.3129 13.2372 14.0562 13.4088 13.7737 13.5259C13.491 13.6431 13.188 13.7034 12.882 13.7034C12.576 13.7034 12.273 13.6431 11.9903 13.5259C11.7076 13.4087 11.4508 13.2369 11.2345 13.0204L6.97973 8.76481C6.54323 8.32776 6.29806 7.73533 6.29806 7.11763C6.29806 6.49994 6.54323 5.90751 6.97973 5.47046L6.98046 5.46973C7.04342 5.40685 7.09337 5.33217 7.12745 5.24996C7.16153 5.16776 7.17907 5.07965 7.17907 4.99066C7.17907 4.90167 7.16153 4.81355 7.12745 4.73135C7.09337 4.64914 7.04342 4.57446 6.98046 4.51158L4.32225 1.85011C4.32217 1.85002 4.32208 1.84994 4.322 1.84985C4.19461 1.72276 4.022 1.65138 3.84204 1.65138C3.662 1.65138 3.48932 1.72282 3.36191 1.85003Z" fill="#500000"/>
</svg>
