<svg width="20" height="20" viewBox="0 0 20 20" fill="none" xmlns="http://www.w3.org/2000/svg">
<path fill-rule="evenodd" clip-rule="evenodd" d="M2.17397 0.618202C2.57032 0.222347 3.10759 0 3.66777 0C4.22794 0 4.76521 0.222347 5.16156 0.618202L7.89501 3.35501C7.89514 3.35513 7.89489 3.35488 7.89501 3.35501C8.09117 3.55102 8.24717 3.78413 8.35337 4.0403C8.45964 4.29663 8.51434 4.5714 8.51434 4.84888C8.51434 5.12637 8.45964 5.40113 8.35337 5.65746C8.24716 5.91366 8.09151 6.14643 7.89531 6.34246C7.71158 6.52653 7.60838 6.77598 7.60838 7.03606C7.60838 7.29623 7.71166 7.54577 7.89551 7.72986L12.2705 12.1057C12.3614 12.1967 12.4697 12.2692 12.5885 12.3185C12.7074 12.3678 12.8349 12.3931 12.9636 12.3931C13.0923 12.3931 13.2197 12.3678 13.3386 12.3185C13.4575 12.2692 13.5655 12.1969 13.6565 12.1059C14.0528 11.71 14.5906 11.4872 15.1508 11.4872C15.7109 11.4872 16.2482 11.7095 16.6446 12.1054L19.379 14.8381C19.7748 15.2345 19.9975 15.7721 19.9975 16.3323C19.9975 16.8925 19.7752 17.4297 19.3793 17.8261L18.7301 18.4753C17.8925 19.3129 16.7943 19.8398 15.6168 19.969C14.4431 20.0977 13.2605 19.8235 12.2633 19.1917C12.2525 19.1854 12.2411 19.1782 12.2307 19.1712C7.73604 16.1335 3.8655 12.2621 0.828756 7.7667L0.826815 7.76383L0.813375 7.74365C0.17769 6.74425 -0.0981634 5.55792 0.031134 4.38056C0.160431 3.2032 0.687263 2.1051 1.52469 1.26748L2.17397 0.618202ZM2.97397 1.4192C2.97395 1.41922 2.97398 1.41919 2.97397 1.4192L2.32528 2.06789C2.32527 2.0679 2.3253 2.06787 2.32528 2.06789C1.66995 2.72339 1.25763 3.58278 1.15644 4.50414C1.05547 5.42358 1.27031 6.34996 1.76555 7.13104L1.76782 7.13443C4.72007 11.5043 8.48184 15.2684 12.8499 18.2233C12.8538 18.2257 12.8578 18.2281 12.8617 18.2306C13.6437 18.7285 14.572 18.9447 15.4934 18.8436C16.4148 18.7426 17.2742 18.3303 17.9296 17.6748L18.5783 17.0261C18.7622 16.842 18.8655 16.5925 18.8655 16.3323C18.8655 16.0722 18.7622 15.8227 18.5785 15.6386C18.5784 15.6386 18.5785 15.6386 18.5785 15.6386L15.8446 12.9064C15.8445 12.9063 15.8446 12.9064 15.8446 12.9064C15.6605 12.7226 15.4109 12.6193 15.1508 12.6193C14.8906 12.6193 14.641 12.7225 14.457 12.9064C14.2609 13.1027 14.0285 13.258 13.7722 13.3642C13.5158 13.4705 13.2411 13.5252 12.9636 13.5252C12.6861 13.5252 12.4113 13.4705 12.155 13.3642C11.8988 13.258 11.666 13.1023 11.4699 12.9061C11.4698 12.906 11.47 12.9062 11.4699 12.9061L7.09472 8.53007C6.69887 8.13372 6.47631 7.59623 6.47631 7.03606C6.47631 6.47588 6.69866 5.93861 7.09451 5.54226C7.18557 5.45131 7.25831 5.3428 7.3076 5.22391C7.35689 5.10503 7.38226 4.97758 7.38226 4.84888C7.38226 4.72018 7.35689 4.59274 7.3076 4.47385C7.25831 4.35496 7.18607 4.24695 7.09501 4.156L4.36157 1.4192C4.36148 1.41912 4.36165 1.41929 4.36157 1.4192C4.1775 1.2355 3.92782 1.13208 3.66777 1.13208C3.40761 1.13208 3.15805 1.23537 2.97397 1.4192Z" fill="white"/>
</svg>
