<svg width="22" height="16" viewBox="0 0 22 16" fill="none" xmlns="http://www.w3.org/2000/svg">
<path fill-rule="evenodd" clip-rule="evenodd" d="M2.59998 1.5999C2.15815 1.5999 1.79998 1.95807 1.79998 2.3999V13.5999C1.79998 14.0417 2.15815 14.3999 2.59998 14.3999H19.4C19.8418 14.3999 20.2 14.0417 20.2 13.5999V2.3999C20.2 1.95807 19.8418 1.5999 19.4 1.5999H2.59998ZM0.599976 2.3999C0.599976 1.29533 1.49541 0.399902 2.59998 0.399902H19.4C20.5045 0.399902 21.4 1.29533 21.4 2.3999V13.5999C21.4 14.7045 20.5045 15.5999 19.4 15.5999H2.59998C1.49541 15.5999 0.599976 14.7045 0.599976 13.5999V2.3999Z" fill="white"/>
<path fill-rule="evenodd" clip-rule="evenodd" d="M1.04076 1.14756C1.24279 0.884894 1.61949 0.83574 1.88215 1.03777L9.48322 6.88417L9.48326 6.8842C9.9181 7.21871 10.4513 7.40008 11 7.40008C11.5486 7.40008 12.0818 7.21871 12.5166 6.8842L12.5167 6.88417L20.1177 1.03777C20.3804 0.83574 20.7571 0.884894 20.9591 1.14756C21.1612 1.41022 21.112 1.78692 20.8494 1.98895L13.2483 7.83532C12.6037 8.33121 11.8132 8.60008 11 8.60008C10.1867 8.60008 9.39622 8.33122 8.75161 7.83535C8.7516 7.83534 8.75159 7.83533 8.75158 7.83532L1.15055 1.98895C0.887885 1.78692 0.838731 1.41022 1.04076 1.14756Z" fill="white"/>
</svg>
