<svg xmlns="http://www.w3.org/2000/svg" viewBox="0 0 36 36" width="32" height="32">
  <path d="m8.377 31.833c6.917 0 11.667 3.583 15 3.583s10.333-1.916 10.333-17.249-9.417-17.584-13.083-17.584c-17.167 0-24.5 31.25-12.25 31.25z" fill="#e7e5da"/>
  <path d="m26.5 29.5h-14c-2.762 0-5-2.239-5-5 0-2.762 2.239-5 5-5h4c.552 0 1-.448 1-1v-10c0-1.105.895-2 2-2h7c1.105 0 2 .895 2 2v19c0 1.105-.895 2-2 2z" fill="#f6f6f6"/>
  <path d="m21.5 6.5c-1.1 0-2 .9-2 2v10c0 .55-.45 1-1 1h-2c.55 0 1-.45 1-1v-10c0-1.1.9-2 2-2z" fill="#eaeaea"/>
  <path d="m14.5 29.5h-2c-2.76 0-5-2.24-5-5 0-1.38.56-2.63 1.46-3.54.91-.9 2.16-1.46 3.54-1.46h2c-1.38 0-2.63.56-3.54 1.46-.9.91-1.46 2.16-1.46 3.54 0 2.76 2.24 5 5 5z" fill="#eaeaea"/>
  <path d="m26.5 30.25h-14c-3.17 0-5.75-2.58-5.75-5.75 0-3.171 2.58-5.75 5.75-5.75h4c.09 0 .149-.045.177-.073s.073-.087.073-.177v-10c0-1.517 1.233-2.75 2.75-2.75h7c1.517 0 2.75 1.233 2.75 2.75v19c0 1.517-1.233 2.75-2.75 2.75zm-14-10c-2.343 0-4.25 1.907-4.25 4.25s1.907 4.25 4.25 4.25h14c.689 0 1.25-.561 1.25-1.25v-19c0-.689-.561-1.25-1.25-1.25h-7c-.689 0-1.25.561-1.25 1.25v10c0 .468-.182.907-.513 1.238-.33.331-.77.512-1.236.512h-.001z"/>
  <path d="m22.25 5.299h1.5v11.402h-1.5z" transform="rotate(-74.75 22.995 10.997)"/>
  <path d="m17.299 15.25h11.402v1.5h-11.402z" transform="rotate(-15.2 23.017 15.983)"/>
  <path d="m22.125 15.02h1.5v11.71h-1.5z" transform="rotate(-73.87 22.875 20.868)"/>
  <path d="m19.125 18.324h1.501v12.352h-1.501z" transform="rotate(-35.93 19.878 24.498)"/>
  <path d="m9.975 23.75h10.05v1.5h-10.05z" transform="rotate(-84.26 15.007 24.502)"/>
  <path d="m10.375 20.295h1.5v9.411h-1.5z" transform="rotate(-16.98 11.134 25.019)"/>
  <g fill="#d1d1d1">
    <path d="m7.375 6.052h1v2h-1z"/>
    <path d="m7.375 11.802h1v2h-1z"/>
    <path d="m3.875 9.302h2v1h-2z"/>
    <path d="m9.625 9.302h2v1h-2z"/>
  </g>
</svg>