<svg xmlns="http://www.w3.org/2000/svg" viewBox="0 0 36 36" width="32" height="32">
  <path d="m27.417 3.914c-6.915.129-11.732-3.365-15.064-3.302s-10.296 2.109-10.009 17.44 9.744 17.404 13.41 17.336c17.163-.321 23.911-31.703 11.663-31.474z" fill="#e7e5da"/>
  <path d="m24.5 29.5h-13c-1.105 0-2-.895-2-2v-19c0-1.105.895-2 2-2h13c1.105 0 2 .895 2 2v19c0 1.105-.895 2-2 2z" fill="#f6f6f6"/>
  <path d="m16 18.5c.82 0 1.54-.39 2-1 .46.61 1.18 1 2 1 1.38 0 2.5-1.12 2.5-2.5s-1.12-2.5-2.5-2.5v-7h-4v7c-1.38 0-2.5 1.12-2.5 2.5s1.12 2.5 2.5 2.5z" fill="#732f2f"/>
  <path d="m20 21.5c-.82 0-1.54.39-2 1-.46-.61-1.18-1-2-1-1.38 0-2.5 1.12-2.5 2.5s1.12 2.5 2.5 2.5v3h4v-3c1.38 0 2.5-1.12 2.5-2.5s-1.12-2.5-2.5-2.5z" fill="#732f2f"/>
  <path d="m15.5 16c0 1.03.62 1.91 1.5 2.29-.31.14-.64.21-1 .21-1.38 0-2.5-1.12-2.5-2.5s1.12-2.5 2.5-2.5v-7h2v7c-1.38 0-2.5 1.12-2.5 2.5z" fill="#500000"/>
  <path d="m18 26.5v3h-2v-3c-1.38 0-2.5-1.12-2.5-2.5s1.12-2.5 2.5-2.5c.36 0 .69.07 1 .21-.88.38-1.5 1.26-1.5 2.29 0 1.38 1.12 2.5 2.5 2.5z" fill="#500000"/>
  <path d="m13.5 29.5h-2c-1.1 0-2-.9-2-2v-19c0-1.1.9-2 2-2h2c-1.1 0-2 .9-2 2v19c0 1.1.9 2 2 2z" fill="#eaeaea"/>
  <path d="m20 19.25c-.739 0-1.436-.244-2-.687-.564.443-1.261.687-2 .687-1.792 0-3.25-1.458-3.25-3.25 0-1.534 1.068-2.823 2.5-3.163v-6.337h1.5v7c0 .414-.336.75-.75.75-.965 0-1.75.785-1.75 1.75s.785 1.75 1.75 1.75c.554 0 1.065-.256 1.401-.702.283-.376.914-.376 1.197 0 .336.446.847.702 1.401.702.965 0 1.75-.785 1.75-1.75s-.785-1.75-1.75-1.75c-.414 0-.75-.336-.75-.75v-7h1.5v6.337c1.432.339 2.5 1.628 2.5 3.163.001 1.792-1.457 3.25-3.249 3.25z"/>
  <path d="m20.75 29.5h-1.5v-3c0-.414.336-.75.75-.75.965 0 1.75-.785 1.75-1.75s-.785-1.75-1.75-1.75c-.554 0-1.065.256-1.401.702-.283.376-.914.376-1.197 0-.337-.446-.848-.702-1.402-.702-.965 0-1.75.785-1.75 1.75s.785 1.75 1.75 1.75c.414 0 .75.336.75.75v3h-1.5v-2.337c-1.432-.339-2.5-1.628-2.5-3.163 0-1.792 1.458-3.25 3.25-3.25.739 0 1.436.244 2 .687.564-.443 1.261-.687 2-.687 1.792 0 3.25 1.458 3.25 3.25 0 1.534-1.068 2.823-2.5 3.163z"/>
  <path d="m24.5 30.25h-13c-1.517 0-2.75-1.233-2.75-2.75v-19c0-1.517 1.233-2.75 2.75-2.75h13c1.517 0 2.75 1.233 2.75 2.75v19c0 1.517-1.233 2.75-2.75 2.75zm-13-23c-.689 0-1.25.561-1.25 1.25v19c0 .689.561 1.25 1.25 1.25h13c.689 0 1.25-.561 1.25-1.25v-19c0-.689-.561-1.25-1.25-1.25z"/>
  <path d="m29.25 8.5c-.827 0-1.5-.673-1.5-1.5s.673-1.5 1.5-1.5 1.5.673 1.5 1.5-.673 1.5-1.5 1.5zm0-2c-.276 0-.5.224-.5.5s.224.5.5.5.5-.224.5-.5-.224-.5-.5-.5z" fill="#d1d1d1"/>
</svg>