<svg xmlns="http://www.w3.org/2000/svg" viewBox="0 0 36 36" width="32" height="32">
  <path d="m34.904 20.355c-3.782-5.791-3.38-11.727-5.203-14.518s-7.256-7.603-20.093.782-9.572 17.5-7.566 20.569c9.388 14.372 39.561 3.423 32.862-6.833z" fill="#e7e5da"/>
  <path d="m17.5 29.5h-10c-.552 0-1-.448-1-1v-20c0-1.105.895-2 2-2h7c1.105 0 2 .895 2 2z" fill="#f6f6f6"/>
  <path d="m26.5 20.5h-9v9h10c.552 0 1-.448 1-1v-6c0-1.105-.895-2-2-2z" fill="#f6f6f6"/>
  <path d="m12 23.5c-1.381 0-2.5 1.119-2.5 2.5v3.5h5v-3.5c0-1.381-1.119-2.5-2.5-2.5z" fill="#732f2f"/>
  <path d="m13 23.71c-.88.38-1.5 1.26-1.5 2.29v3.5h-2v-3.5c0-1.38 1.12-2.5 2.5-2.5.35 0 .69.07 1 .21z" fill="#500000"/>
  <path d="m9.5 29.5h-2c-.55 0-1-.45-1-1v-20c0-1.1.9-2 2-2h2c-1.1 0-2 .9-2 2v20c0 .55.45 1 1 1z" fill="#eaeaea"/>
  <path d="m17.5 20.5h2v9h-2z" fill="#eaeaea"/>
  <path d="m17.5 30.25h-10c-.965 0-1.75-.785-1.75-1.75v-20c0-1.517 1.233-2.75 2.75-2.75h7c1.517 0 2.75 1.233 2.75 2.75v21c0 .414-.336.75-.75.75zm-9-23c-.689 0-1.25.561-1.25 1.25v20c0 .138.112.25.25.25h9.25v-20.25c0-.689-.561-1.25-1.25-1.25z"/>
  <path d="m9.75 9.5h1.5v4h-1.5z"/>
  <path d="m12.75 9.5h1.5v4h-1.5z"/>
  <path d="m10.5 10.75h3v1.5h-3z"/>
  <path d="m27.5 30.25h-10.75v-1.5h10.75c.138 0 .25-.112.25-.25v-6c0-.689-.561-1.25-1.25-1.25h-9.75v-1.5h9.75c1.517 0 2.75 1.233 2.75 2.75v6c0 .965-.785 1.75-1.75 1.75z"/>
  <path d="m9.75 16.75h4.5v1.5h-4.5z"/>
  <path d="m9.75 19.75h4.5v1.5h-4.5z"/>
  <path d="m19.75 22.75h2.5v1.5h-2.5z"/>
  <path d="m19.75 25.75h2.5v1.5h-2.5z"/>
  <path d="m23.75 22.75h2.5v1.5h-2.5z"/>
  <path d="m23.75 25.75h2.5v1.5h-2.5z"/>
  <path d="m15.25 29.5h-1.5v-3.5c0-.965-.785-1.75-1.75-1.75s-1.75.785-1.75 1.75v3.5h-1.5v-3.5c0-1.792 1.458-3.25 3.25-3.25s3.25 1.458 3.25 3.25z"/>
  <g fill="#d1d1d1">
    <path d="m23.955 6.555h1v2.001h-1z" transform="rotate(-45 24.46 7.56)"/>
    <path d="m28.021 10.621h1v2h-1z" transform="rotate(-45 28.514 11.627)"/>
    <path d="m27.52 6.879h2v1h-2z" transform="rotate(-45 28.521 7.384)"/>
  </g>
</svg>