<svg width="40" height="22" viewBox="0 0 40 22" fill="none" xmlns="http://www.w3.org/2000/svg">
<g clip-path="url(#clip0)">
<path fill-rule="evenodd" clip-rule="evenodd" d="M1.8252 20.7097C2.6104 21.4949 3.8846 21.4949 4.6698 20.7097L20.2668 5.1112L35.8652 20.7082C36.6504 21.4933 37.9246 21.4933 38.7097 20.7081C39.4949 19.923 39.4949 18.6487 38.7097 17.8636L21.6874 0.841299L21.6851 0.839001C21.2947 0.452701 20.7809 0.2551 20.2667 0.2551C19.7543 0.2551 19.236 0.451701 18.8434 0.846901L18.8408 0.849501L1.8252 17.8651L1.825 17.8653C1.0402 18.6504 1.0401 19.9246 1.8252 20.7097ZM37.8344 19.8328C37.8109 19.8564 37.7861 19.8781 37.7604 19.898C37.7861 19.8781 37.8109 19.8564 37.8344 19.8329C38.1361 19.5311 38.1361 19.0406 37.8344 18.7389L20.8144 1.7189C20.742 1.6472 20.659 1.5925 20.5705 1.5548C20.659 1.5925 20.742 1.6472 20.8144 1.7189L37.8344 18.7389C38.1362 19.0406 38.1362 19.5311 37.8344 19.8328Z" fill="white"/>
</g>
<defs>
<clipPath id="clip0">
<rect width="40" height="22" fill="white"/>
</clipPath>
</defs>
</svg>
