<svg width="151" height="219" viewBox="0 0 151 219" fill="none" xmlns="http://www.w3.org/2000/svg">
    <g clip-path="url(#clip0)">
        <mask id="mask0" mask-type="alpha" maskUnits="userSpaceOnUse" x="0" y="0" width="94" height="219">
            <rect x="0.5" width="93" height="219" fill="#3c0000" />
        </mask>
        <g mask="url(#mask0)">
            <circle cx="6.19048" cy="4.69048" r="4.69048" fill="#f6f6f6" />
            <circle cx="6.19048" cy="117.262" r="4.69048" fill="#f6f6f6" />
            <circle cx="6.19048" cy="42.2144" r="4.69048" fill="#f6f6f6" />
            <circle cx="6.19048" cy="154.786" r="4.69048" fill="#f6f6f6" />
            <circle cx="6.19048" cy="79.7381" r="4.69048" fill="#f6f6f6" />
            <circle cx="6.19048" cy="192.31" r="4.69048" fill="#f6f6f6" />
            <circle cx="6.19048" cy="210.69" r="4.69048" fill="#f6f6f6" />
            <circle cx="6.19048" cy="23.4524" r="4.69048" fill="#f6f6f6" />
            <circle cx="6.19048" cy="136.024" r="4.69048" fill="#f6f6f6" />
            <circle cx="6.19048" cy="60.9761" r="4.69048" fill="#f6f6f6" />
            <circle cx="6.19048" cy="173.548" r="4.69048" fill="#f6f6f6" />
            <circle cx="6.19048" cy="98.5" r="4.69048" fill="#f6f6f6" />
            <circle cx="81.2381" cy="4.69048" r="4.69048" fill="#f6f6f6" />
            <circle cx="81.2381" cy="117.262" r="4.69048" fill="#f6f6f6" />
            <circle cx="81.2381" cy="42.2144" r="4.69048" fill="#f6f6f6" />
            <circle cx="81.2381" cy="154.786" r="4.69048" fill="#f6f6f6" />
            <circle cx="81.2381" cy="79.7381" r="4.69048" fill="#f6f6f6" />
            <circle cx="81.2383" cy="192.31" r="4.69048" fill="#f6f6f6" />
            <circle cx="81.2383" cy="210.69" r="4.69048" fill="#f6f6f6" />
            <circle cx="81.2381" cy="23.4524" r="4.69048" fill="#f6f6f6" />
            <circle cx="81.2381" cy="136.024" r="4.69048" fill="#f6f6f6" />
            <circle cx="81.2381" cy="60.9761" r="4.69048" fill="#f6f6f6" />
            <circle cx="81.2381" cy="173.548" r="4.69048" fill="#f6f6f6" />
            <circle cx="81.2381" cy="98.5" r="4.69048" fill="#f6f6f6" />
            <circle cx="62.4762" cy="4.69048" r="4.69048" fill="#f6f6f6" />
            <circle cx="62.4762" cy="117.262" r="4.69048" fill="#f6f6f6" />
            <circle cx="62.4762" cy="42.2144" r="4.69048" fill="#f6f6f6" />
            <circle cx="62.4762" cy="154.786" r="4.69048" fill="#f6f6f6" />
            <circle cx="62.4762" cy="79.7381" r="4.69048" fill="#f6f6f6" />
            <circle cx="62.4761" cy="192.31" r="4.69048" fill="#f6f6f6" />
            <circle cx="62.4761" cy="210.69" r="4.69048" fill="#f6f6f6" />
            <circle cx="62.4762" cy="23.4524" r="4.69048" fill="#f6f6f6" />
            <circle cx="62.4762" cy="136.024" r="4.69048" fill="#f6f6f6" />
            <circle cx="62.4762" cy="60.9761" r="4.69048" fill="#f6f6f6" />
            <circle cx="62.4762" cy="173.548" r="4.69048" fill="#f6f6f6" />
            <circle cx="62.4762" cy="98.5" r="4.69048" fill="#f6f6f6" />
            <circle cx="24.9524" cy="4.69048" r="4.69048" fill="#f6f6f6" />
            <circle cx="24.9524" cy="117.262" r="4.69048" fill="#f6f6f6" />
            <circle cx="24.9524" cy="42.2144" r="4.69048" fill="#f6f6f6" />
            <circle cx="24.9524" cy="154.786" r="4.69048" fill="#f6f6f6" />
            <circle cx="24.9524" cy="79.7381" r="4.69048" fill="#f6f6f6" />
            <circle cx="24.9522" cy="192.31" r="4.69048" fill="#f6f6f6" />
            <circle cx="24.9522" cy="210.69" r="4.69048" fill="#f6f6f6" />
            <circle cx="24.9524" cy="23.4524" r="4.69048" fill="#f6f6f6" />
            <circle cx="24.9524" cy="136.024" r="4.69048" fill="#f6f6f6" />
            <circle cx="24.9524" cy="60.9761" r="4.69048" fill="#f6f6f6" />
            <circle cx="24.9524" cy="173.548" r="4.69048" fill="#f6f6f6" />
            <circle cx="24.9524" cy="98.5" r="4.69048" fill="#f6f6f6" />
            <circle cx="43.7143" cy="4.69048" r="4.69048" fill="#f6f6f6" />
            <circle cx="43.7143" cy="117.262" r="4.69048" fill="#f6f6f6" />
            <circle cx="43.7143" cy="42.2144" r="4.69048" fill="#f6f6f6" />
            <circle cx="43.7143" cy="154.786" r="4.69048" fill="#f6f6f6" />
            <circle cx="43.7143" cy="79.7381" r="4.69048" fill="#f6f6f6" />
            <circle cx="43.7144" cy="192.31" r="4.69048" fill="#f6f6f6" />
            <circle cx="43.7144" cy="210.69" r="4.69048" fill="#f6f6f6" />
            <circle cx="43.7143" cy="23.4524" r="4.69048" fill="#f6f6f6" />
            <circle cx="43.7143" cy="136.024" r="4.69048" fill="#f6f6f6" />
            <circle cx="43.7143" cy="60.9761" r="4.69048" fill="#f6f6f6" />
            <circle cx="43.7143" cy="173.548" r="4.69048" fill="#f6f6f6" />
            <circle cx="43.7143" cy="98.5" r="4.69048" fill="#f6f6f6" />
        </g>
        <rect x="36.5" y="19" width="115" height="107" fill="#3c0000" />
    </g>
    <defs>
        <clipPath id="clip0">
            <rect width="151" height="219" fill="white" />
        </clipPath>
    </defs>
</svg>