<svg width="52" height="294" viewBox="0 0 52 294" fill="none" xmlns="http://www.w3.org/2000/svg">
    <g clip-path="url(#clip0)">
        <circle cx="45" cy="7" r="7" fill="#f6f6f6" />
        <circle cx="45" cy="175" r="7" fill="#f6f6f6" />
        <circle cx="45" cy="63" r="7" fill="#f6f6f6" />
        <circle cx="45" cy="231" r="7" fill="#f6f6f6" />
        <circle cx="45" cy="119" r="7" fill="#f6f6f6" />
        <circle cx="45" cy="287" r="7" fill="#f6f6f6" />
        <circle cx="45" cy="35" r="7" fill="#f6f6f6" />
        <circle cx="45" cy="203" r="7" fill="#f6f6f6" />
        <circle cx="45" cy="91" r="7" fill="#f6f6f6" />
        <circle cx="45" cy="259" r="7" fill="#f6f6f6" />
        <circle cx="45" cy="147" r="7" fill="#f6f6f6" />
        <circle cx="17" cy="7" r="7" fill="#f6f6f6" />
        <circle cx="17" cy="175" r="7" fill="#f6f6f6" />
        <circle cx="17" cy="63" r="7" fill="#f6f6f6" />
        <circle cx="17" cy="231" r="7" fill="#f6f6f6" />
        <circle cx="17" cy="119" r="7" fill="#f6f6f6" />
        <circle cx="17" cy="287" r="7" fill="#f6f6f6" />
        <circle cx="17" cy="35" r="7" fill="#f6f6f6" />
        <circle cx="17" cy="203" r="7" fill="#f6f6f6" />
        <circle cx="17" cy="91" r="7" fill="#f6f6f6" />
        <circle cx="17" cy="259" r="7" fill="#f6f6f6" />
        <circle cx="17" cy="147" r="7" fill="#f6f6f6" />
    </g>
    <defs>
        <clipPath id="clip0">
            <rect width="52" height="294" fill="white" />
        </clipPath>
    </defs>
</svg>