<svg width="43" height="43" viewBox="0 0 43 43" fill="none" xmlns="http://www.w3.org/2000/svg">
    <circle cx="21.1877" cy="21.832" r="21" fill="#500000" />
    <path
        d="M23.8883 31.0564L23.899 31.0626C24.843 31.6637 25.9637 31.9247 27.0761 31.8027C28.1886 31.6807 29.2261 31.1829 30.0174 30.3916L30.7053 29.7037C31.0126 29.3961 31.1851 28.979 31.1851 28.5443C31.1851 28.1095 31.0126 27.6925 30.7053 27.3848L27.807 24.4883C27.4993 24.181 27.0823 24.0084 26.6475 24.0084C26.2128 24.0084 25.7957 24.181 25.4881 24.4883C25.336 24.6406 25.1553 24.7614 24.9565 24.8439C24.7576 24.9263 24.5444 24.9688 24.3291 24.9688C24.1139 24.9688 23.9007 24.9263 23.7018 24.8439C23.503 24.7614 23.3223 24.6406 23.1702 24.4883L18.5324 19.8497C18.2252 19.542 18.0526 19.125 18.0526 18.6903C18.0526 18.2555 18.2252 17.8385 18.5324 17.5308C18.6848 17.3787 18.8056 17.198 18.8881 16.9992C18.9705 16.8003 19.0129 16.5871 19.0129 16.3718C19.0129 16.1566 18.9705 15.9434 18.8881 15.7445C18.8056 15.5457 18.6848 15.365 18.5324 15.2129L15.635 12.3119C15.3274 12.0046 14.9104 11.832 14.4756 11.832C14.0408 11.832 13.6238 12.0046 13.3161 12.3119L12.6282 12.9998C11.837 13.7911 11.3393 14.8286 11.2172 15.9409C11.095 17.0533 11.3557 18.174 11.9563 19.1182L11.9634 19.1289C15.1394 23.8304 19.1875 27.8794 23.8883 31.0564V31.0564Z"
        stroke="white" stroke-width="1.8" stroke-linecap="round" stroke-linejoin="round" />
</svg>