<svg width="19" height="14" viewBox="0 0 19 14" fill="none" xmlns="http://www.w3.org/2000/svg">
    <path fill-rule="evenodd" clip-rule="evenodd"
        d="M2.03797 1.59494C1.79329 1.59494 1.59494 1.79329 1.59494 2.03797V11.962C1.59494 12.2067 1.79329 12.4051 2.03797 12.4051H16.9241C17.1687 12.4051 17.3671 12.2067 17.3671 11.962V2.03797C17.3671 1.79329 17.1687 1.59494 16.9241 1.59494H2.03797ZM0 2.03797C0 0.912432 0.912432 0 2.03797 0H16.9241C18.0496 0 18.962 0.912432 18.962 2.03797V11.962C18.962 13.0876 18.0496 14 16.9241 14H2.03797C0.912432 14 0 13.0876 0 11.962V2.03797Z"
        fill="#500000" />
    <path fill-rule="evenodd" clip-rule="evenodd"
        d="M0.445666 0.766391C0.714184 0.417283 1.21487 0.351952 1.56398 0.620471L8.2991 5.80083L8.29915 5.80086C8.63798 6.06152 9.05348 6.20285 9.48097 6.20285C9.90846 6.20285 10.324 6.06152 10.6628 5.80086L10.6628 5.80083L17.398 0.620471C17.7471 0.351953 18.2478 0.417283 18.5163 0.766391C18.7848 1.1155 18.7195 1.61618 18.3704 1.8847L11.6353 7.06502C11.6353 7.06503 11.6353 7.06504 11.6352 7.06506C11.0176 7.54017 10.2602 7.79778 9.48097 7.79778C8.70173 7.79778 7.94435 7.54017 7.32671 7.06506C7.32669 7.06504 7.32668 7.06503 7.32666 7.06502L0.591587 1.8847C0.242479 1.61618 0.177148 1.1155 0.445666 0.766391Z"
        fill="#500000" />
</svg>