<svg width="23" height="18" viewBox="0 0 23 18" fill="none" xmlns="http://www.w3.org/2000/svg">
<path fill-rule="evenodd" clip-rule="evenodd" d="M2.5001 2.71992C2.16873 2.71992 1.9001 2.98855 1.9001 3.31992V15.3199C1.9001 15.6513 2.16873 15.9199 2.5001 15.9199H20.5001C20.8315 15.9199 21.1001 15.6513 21.1001 15.3199V3.31992C21.1001 2.98855 20.8315 2.71992 20.5001 2.71992H2.5001ZM0.100098 3.31992C0.100098 1.99444 1.17461 0.919922 2.5001 0.919922H20.5001C21.8256 0.919922 22.9001 1.99444 22.9001 3.31992V15.3199C22.9001 16.6454 21.8256 17.7199 20.5001 17.7199H2.5001C1.17461 17.7199 0.100098 16.6454 0.100098 15.3199V3.31992Z" fill="white"/>
<path fill-rule="evenodd" clip-rule="evenodd" d="M0.625622 1.82131C0.928664 1.42732 1.49372 1.35359 1.88772 1.65663L10.0317 7.92063L10.0318 7.92067C10.4527 8.2445 10.9689 8.42007 11.5 8.42007C12.0311 8.42007 12.5473 8.2445 12.9682 7.92067L12.9683 7.92063L21.1123 1.65663C21.5063 1.35359 22.0714 1.42732 22.3744 1.82131C22.6774 2.2153 22.6037 2.78036 22.2097 3.0834L14.0658 9.34736C14.0658 9.34737 14.0657 9.34739 14.0657 9.3474C13.3301 9.91327 12.4281 10.2201 11.5 10.2201C10.5719 10.2201 9.66991 9.91327 8.9343 9.3474C8.93429 9.34739 8.93427 9.34737 8.93425 9.34736L0.790304 3.0834C0.396311 2.78036 0.32258 2.2153 0.625622 1.82131Z" fill="white"/>
</svg>
