<svg width="40" height="14" viewBox="0 0 40 14" fill="none" xmlns="http://www.w3.org/2000/svg">
<path fill-rule="evenodd" clip-rule="evenodd" d="M-8.74228e-08 7.00012C-3.91405e-08 6.44784 0.447715 6.00012 1 6.00012L38 6.00013C38.5523 6.00013 39 6.44784 39 7.00013C39 7.55241 38.5523 8.00013 38 8.00013L1 8.00012C0.447715 8.00012 -1.35705e-07 7.55241 -8.74228e-08 7.00012Z" fill="#247CFF"/>
<path fill-rule="evenodd" clip-rule="evenodd" d="M32.2449 1.12627C32.6354 0.735743 33.2686 0.735743 33.6591 1.12627L38.8258 6.29293C39.2163 6.68346 39.2163 7.31662 38.8258 7.70715L33.6591 12.8738C33.2686 13.2643 32.6354 13.2643 32.2449 12.8738C31.8544 12.4833 31.8544 11.8501 32.2449 11.4596L36.7045 7.00004L32.2449 2.54048C31.8544 2.14996 31.8544 1.51679 32.2449 1.12627Z" fill="#247CFF"/>
</svg>
