<svg width="22" height="22" viewBox="0 0 22 22" fill="none" xmlns="http://www.w3.org/2000/svg">
<path d="M13.7005 20.2244L13.7112 20.2306C14.6552 20.8316 15.776 21.0927 16.8884 20.9707C18.0008 20.8487 19.0383 20.3509 19.8296 19.5596L20.5176 18.8717C20.8248 18.564 20.9974 18.147 20.9974 17.7122C20.9974 17.2774 20.8248 16.8604 20.5176 16.5528L17.6192 13.6562C17.3116 13.349 16.8946 13.1764 16.4598 13.1764C16.025 13.1764 15.608 13.349 15.3004 13.6562C15.1482 13.8086 14.9676 13.9294 14.7687 14.0118C14.5698 14.0943 14.3567 14.1367 14.1414 14.1367C13.9261 14.1367 13.7129 14.0943 13.5141 14.0118C13.3152 13.9294 13.1345 13.8086 12.9824 13.6562L8.3447 9.01765C8.03746 8.71002 7.86488 8.29301 7.86488 7.85822C7.86488 7.42344 8.03746 7.00643 8.3447 6.6988C8.49702 6.54666 8.61786 6.366 8.70031 6.16713C8.78275 5.96826 8.82519 5.75509 8.82519 5.53981C8.82519 5.32453 8.78275 5.11137 8.70031 4.9125C8.61786 4.71363 8.49702 4.53297 8.3447 4.38083L5.44725 1.47982C5.13962 1.17258 4.72261 1 4.28782 1C3.85304 1 3.43603 1.17258 3.1284 1.47982L2.44048 2.16775C1.6493 2.95911 1.15156 3.99656 1.02941 5.10889C0.907251 6.22123 1.16797 7.34197 1.76855 8.28617L1.77566 8.29684C4.95167 12.9984 8.99972 17.0473 13.7005 20.2244V20.2244Z" stroke="white" stroke-width="1.8" stroke-linecap="round" stroke-linejoin="round"/>
</svg>
