<svg width="19" height="22" viewBox="0 0 19 22" fill="none" xmlns="http://www.w3.org/2000/svg">
    <path
        d="M9.68681 13.0543C11.9059 13.0543 13.7049 11.2553 13.7049 9.03617C13.7049 6.81703 11.9059 5.01807 9.68681 5.01807C7.46767 5.01807 5.6687 6.81703 5.6687 9.03617C5.6687 11.2553 7.46767 13.0543 9.68681 13.0543Z"
        stroke="#500000" stroke-width="1.8" stroke-linecap="round" stroke-linejoin="round" />
    <path
        d="M17.7231 9.03621C17.7231 16.0902 11.5334 20.0467 10.0181 20.9119C9.91708 20.9696 9.80275 21 9.6864 21C9.57005 21 9.45571 20.9696 9.35468 20.9119C7.83941 20.0458 1.65063 16.0884 1.65063 9.03621C1.65063 6.90487 2.4973 4.86083 4.00439 3.35375C5.51147 1.84667 7.55551 1 9.68684 1C11.8182 1 13.8622 1.84667 15.3693 3.35375C16.8764 4.86083 17.7231 6.90487 17.7231 9.03621Z"
        stroke="#500000" stroke-width="1.8" stroke-linecap="round" stroke-linejoin="round" />
</svg>