<svg width="20" height="20" viewBox="0 0 20 20" fill="none" xmlns="http://www.w3.org/2000/svg">
<path fill-rule="evenodd" clip-rule="evenodd" d="M2.26598 0.766545C2.69905 0.334013 3.2861 0.0910645 3.89818 0.0910645C4.51026 0.0910645 5.09731 0.334013 5.53038 0.766545L5.5311 0.767262L8.16444 3.40383C8.16457 3.40396 8.16431 3.4037 8.16444 3.40383C8.37881 3.61804 8.54927 3.87278 8.66533 4.15273C8.78146 4.43285 8.84124 4.73311 8.84124 5.03635C8.84124 5.33959 8.78146 5.63985 8.66533 5.91998C8.54929 6.19989 8.37924 6.45421 8.16491 6.6684C8.03896 6.79463 7.96823 6.96567 7.96823 7.14399C7.96823 7.32244 8.03906 7.49358 8.16516 7.61984L12.3809 11.8364C12.4433 11.8988 12.5176 11.9486 12.599 11.9824C12.6805 12.0162 12.7678 12.0335 12.856 12.0335C12.9441 12.0335 13.0315 12.0162 13.1129 11.9824C13.1944 11.9486 13.2684 11.8991 13.3307 11.8367L13.3314 11.836C13.7645 11.4035 14.3515 11.1605 14.9636 11.1605C15.5757 11.1605 16.1627 11.4035 16.5958 11.836L19.2309 14.4694C19.6634 14.9025 19.9069 15.4901 19.9069 16.1022C19.9069 16.7143 19.6639 17.3013 19.2314 17.7344L18.6056 18.3601C17.7546 19.2112 16.6388 19.7465 15.4424 19.8777C14.2461 20.0089 13.0407 19.7282 12.0255 19.0818L12.3098 18.6353L12.4552 18.386L11.9971 19.0639C7.63691 16.117 3.88224 12.3615 0.93641 8.00073L0.933611 7.99659L0.92716 7.98689L0.917568 7.97216C0.271704 6.95676 -0.00867863 5.7515 0.122689 4.55529C0.254057 3.35908 0.789325 2.24339 1.64016 1.39236L2.26598 0.766545ZM12.8939 17.6949C12.8974 17.6971 12.9008 17.6992 12.9043 17.7014C13.6054 18.1478 14.4378 18.3417 15.264 18.2511C16.0902 18.1605 16.8608 17.7908 17.4486 17.2031L18.0736 16.578C18.1997 16.4518 18.2705 16.2806 18.2705 16.1022C18.2705 15.9238 18.1997 15.7527 18.0737 15.6265C18.0737 15.6264 18.0738 15.6265 18.0737 15.6265L15.4395 12.9938C15.4394 12.9938 15.4395 12.9939 15.4395 12.9938C15.3132 12.8678 15.142 12.7969 14.9636 12.7969C14.7853 12.7969 14.6143 12.8676 14.4881 12.9935C14.2739 13.2079 14.0196 13.3779 13.7396 13.494C13.4595 13.6101 13.1592 13.6699 12.856 13.6699C12.5527 13.6699 12.2525 13.6101 11.9723 13.494C11.6922 13.3779 11.4377 13.2077 11.2234 12.9931L7.00765 8.7765C6.57512 8.34343 6.33187 7.75607 6.33187 7.14399C6.33187 6.53192 6.57481 5.94487 7.00735 5.51179L7.00807 5.51107C7.07046 5.44876 7.11995 5.37476 7.15372 5.2933C7.18749 5.21185 7.20487 5.12453 7.20487 5.03635C7.20487 4.94817 7.18749 4.86086 7.15372 4.7794C7.11995 4.69794 7.07046 4.62394 7.00807 4.56163L4.37402 1.92435C4.37393 1.92426 4.37412 1.92445 4.37402 1.92435C4.24779 1.79843 4.07649 1.72743 3.89818 1.72743C3.71977 1.72743 3.54866 1.79823 3.42241 1.92428C3.42239 1.9243 3.42244 1.92425 3.42241 1.92428L2.79738 2.54931C2.79736 2.54933 2.7974 2.54929 2.79738 2.54931C2.20975 3.1371 1.84 3.90774 1.74927 4.73392C1.65884 5.55736 1.8509 6.38701 2.29381 7.08686C5.11794 11.2669 8.71606 14.8677 12.8939 17.6949Z" fill="white"/>
</svg>
